<svg xmlns="http://www.w3.org/2000/svg" xmlns:cc="http://web.resource.org/cc/" xmlns:svg="http://www.w3.org/2000/svg" id="svg2463" width="705.87" height="812.714" version="1.0"><metadata id="metadata2468"/><g id="layer1" transform="translate(-22.779422,-113.5204)"><g id="g2473" fill="#000" transform="matrix(1.487792,0,0,1.487792,-78.780096,-458.22)"><path id="path2475" d="M 81.463,644.621 L 353.463,569.75 C 369.348,564.217 384.87,567.362 400.027,579.186 L 532.335,712.929 C 542.55,721.922 545.217,737.444 540.335,759.493 L 521.463,820.621 L 246.592,927.493 C 226.821,934.608 207.402,929.274 188.335,911.493 L 90.899,756.621 L 68.335,673.75 C 67.632,659.557 72.009,649.847 81.463,644.621 z"/></g><g id="g2477" fill="#fff" transform="matrix(1.487792,0,0,1.487792,-78.780096,-458.22)"><path id="path2479" d="M 68.335,673.75 C 67.862,664.191 69.692,656.666 73.826,651.174 C 134.638,742.628 170.547,796.621 185.734,819.448 L 184.508,905.41 L 90.899,756.621 L 68.335,673.75 z"/></g><g id="g2481" fill="#fff" transform="matrix(1.487792,0,0,1.487792,-78.780096,-458.22)"><path id="path2483" d="M 163.714,679.399 C 163.714,636.299 229.062,601.36 309.676,601.36 C 390.289,601.36 455.638,636.299 455.638,679.399 C 455.638,722.498 390.289,757.437 309.676,757.437 C 229.062,757.437 163.714,722.498 163.714,679.399 z"/></g><g id="g2485" fill="#fff" transform="matrix(1.487792,0,0,1.487792,-78.780096,-458.22)"><path id="path2487"/></g><g id="g2489" fill="#000" transform="matrix(1.487792,0,0,1.487792,-78.780096,-458.22)"><path id="path2491" d="M 165.192,688.214 C 165.192,645.114 230.54,610.176 311.153,610.176 C 391.767,610.176 457.115,645.114 457.115,688.214 C 457.115,731.314 391.767,766.252 311.153,766.252 C 230.54,766.252 165.192,731.314 165.192,688.214 z"/></g><g id="g2493" fill="#000" transform="matrix(1.487792,0,0,1.487792,-78.780096,-458.22)"><path id="path2495"/></g><g id="g2497" fill="red" transform="matrix(1.487792,0,0,1.487792,-78.780096,-458.22)"><path id="path2499" d="M 189.77,771.186 C 189.77,757.931 206.072,747.186 226.181,747.186 C 246.29,747.186 262.592,757.931 262.592,771.186 C 262.592,784.441 246.29,795.186 226.181,795.186 C 206.072,795.186 189.77,784.441 189.77,771.186 z"/></g><g id="g2501" fill="red" transform="matrix(1.487792,0,0,1.487792,-78.780096,-458.22)"><path id="path2503"/></g><g id="g2505" fill="#fff" transform="matrix(1.487792,0,0,1.487792,-78.780096,-458.22)"><path id="path2507" d="M 262.548,770.006 C 262.577,770.397 262.592,770.79 262.592,771.186 C 262.592,784.441 246.29,795.186 226.181,795.186 C 206.219,795.186 189.947,784.598 189.773,771.476 L 189.773,790.252 C 211.331,812.009 250.084,812.621 265.268,787.806 L 262.548,770.006 z"/></g><g id="g2509" fill="#fff" transform="matrix(1.487792,0,0,1.487792,-78.780096,-458.22)"><path id="path2511" d="M 190.16,678.66 C 190.16,643.088 245.494,614.252 313.752,614.252 C 382.012,614.252 437.345,643.088 437.345,678.66 C 437.345,714.232 382.012,743.067 313.752,743.067 C 245.494,743.067 190.16,714.232 190.16,678.66 z"/></g><g id="g2513" fill="#fff" transform="matrix(1.487792,0,0,1.487792,-78.780096,-458.22)"><path id="path2515"/></g><g id="g2517" fill="#000" transform="matrix(1.487792,0,0,1.487792,-78.780096,-458.22)"><path id="path2519" d="M 192.453,684.214 C 192.453,650.443 246.726,623.067 313.676,623.067 C 380.626,623.067 434.899,650.443 434.899,684.214 C 434.899,717.984 380.626,745.36 313.676,745.36 C 246.726,745.36 192.453,717.984 192.453,684.214 z"/></g><g id="g2521" fill="#000" transform="matrix(1.487792,0,0,1.487792,-78.780096,-458.22)"><path id="path2523"/></g><g id="g2525" fill="#fff" transform="matrix(1.487792,0,0,1.487792,-78.780096,-458.22)"><path id="path2527" d="M 199.638,691.399 C 199.638,659.795 249.781,634.176 311.638,634.176 C 373.494,634.176 423.638,659.795 423.638,691.399 C 423.638,723.002 373.494,748.621 311.638,748.621 C 249.781,748.621 199.638,723.002 199.638,691.399 z"/></g><g id="g2529" fill="#fff" transform="matrix(1.487792,0,0,1.487792,-78.780096,-458.22)"><path id="path2531"/></g><g id="g2533" fill="#000" transform="matrix(1.487792,0,0,1.487792,-78.780096,-458.22)"><path id="path2535" d="M 210.084,684.621 C 210.084,656.31 255.767,633.36 312.122,633.36 C 368.477,633.36 414.16,656.31 414.16,684.621 C 414.16,712.933 368.477,735.883 312.122,735.883 C 255.767,735.883 210.084,712.933 210.084,684.621 z"/></g><g id="g2537" fill="#000" transform="matrix(1.487792,0,0,1.487792,-78.780096,-458.22)"><path id="path2539"/></g><g id="g2541" fill="#fff" transform="matrix(1.487792,0,0,1.487792,-78.780096,-458.22)"><path id="path2543" d="M 209.268,674.252 C 209.268,646.434 254.404,623.883 310.084,623.883 C 365.763,623.883 410.899,646.434 410.899,674.252 C 410.899,702.071 365.763,724.621 310.084,724.621 C 254.404,724.621 209.268,702.071 209.268,674.252 z"/></g><g id="g2545" fill="#fff" transform="matrix(1.487792,0,0,1.487792,-78.780096,-458.22)"><path id="path2547"/></g><g id="g2549" fill="#000" transform="matrix(1.487792,0,0,1.487792,-78.780096,-458.22)"><path id="path2551" d="M 218.899,671.475 C 218.899,644.74 261.149,623.067 313.268,623.067 C 365.388,623.067 407.638,644.74 407.638,671.475 C 407.638,698.21 365.388,719.883 313.268,719.883 C 261.149,719.883 218.899,698.21 218.899,671.475 z"/></g><g id="g2553" fill="#000" transform="matrix(1.487792,0,0,1.487792,-78.780096,-458.22)"><path id="path2555"/></g><g id="g2557" fill="#fff" transform="matrix(1.487792,0,0,1.487792,-78.780096,-458.22)"><path id="path2559" d="M 226.084,659.883 C 226.084,630.713 265.117,607.067 313.268,607.067 C 361.42,607.067 400.453,630.713 400.453,659.883 C 400.453,689.052 361.42,712.698 313.268,712.698 C 265.117,712.698 226.084,689.052 226.084,659.883 z"/></g><g id="g2561" fill="#fff" transform="matrix(1.487792,0,0,1.487792,-78.780096,-458.22)"><path id="path2563"/></g><g id="g2565" fill="#000" transform="matrix(1.487792,0,0,1.487792,-78.780096,-458.22)"><path id="path2567" d="M 230.16,660.214 C 230.16,638.798 266.673,621.437 311.714,621.437 C 356.756,621.437 393.268,638.798 393.268,660.214 C 393.268,681.63 356.756,698.991 311.714,698.991 C 266.673,698.991 230.16,681.63 230.16,660.214 z"/></g><g id="g2569" fill="#000" transform="matrix(1.487792,0,0,1.487792,-78.780096,-458.22)"><path id="path2571"/></g><g id="g2573" fill="#fff" transform="matrix(1.487792,0,0,1.487792,-78.780096,-458.22)"><path id="path2575" d="M 244.53,654.991 C 244.53,635.559 274.791,619.806 312.122,619.806 C 349.452,619.806 379.714,635.559 379.714,654.991 C 379.714,674.423 349.452,690.176 312.122,690.176 C 274.791,690.176 244.53,674.423 244.53,654.991 z"/></g><g id="g2577" fill="#fff" transform="matrix(1.487792,0,0,1.487792,-78.780096,-458.22)"><path id="path2579"/></g><g id="g2581" fill="#000" transform="matrix(1.487792,0,0,1.487792,-78.780096,-458.22)"><path id="path2583" d="M 253.345,652.29 C 253.345,637.051 279.842,624.698 312.529,624.698 C 345.217,624.698 371.714,637.051 371.714,652.29 C 371.714,667.529 345.217,679.883 312.529,679.883 C 279.842,679.883 253.345,667.529 253.345,652.29 z"/></g><g id="g2585" fill="#000" transform="matrix(1.487792,0,0,1.487792,-78.780096,-458.22)"><path id="path2587"/></g><g id="g2589" fill="#fff" transform="matrix(1.487792,0,0,1.487792,-78.780096,-458.22)"><path id="path2591" d="M 266.084,644.621 C 266.084,633.168 287.391,623.883 313.676,623.883 C 339.961,623.883 361.268,633.168 361.268,644.621 C 361.268,656.075 339.961,665.36 313.676,665.36 C 287.391,665.36 266.084,656.075 266.084,644.621 z"/></g><g id="g2593" fill="#fff" transform="matrix(1.487792,0,0,1.487792,-78.780096,-458.22)"><path id="path2595"/></g><g id="g2597" fill="#000" transform="matrix(1.487792,0,0,1.487792,-78.780096,-458.22)"><path id="path2599" d="M 274.084,639.399 C 274.084,631.645 290.566,625.36 310.899,625.36 C 331.232,625.36 347.714,631.645 347.714,639.399 C 347.714,647.152 331.232,653.437 310.899,653.437 C 290.566,653.437 274.084,647.152 274.084,639.399 z"/></g><g id="g2601" fill="#000" transform="matrix(1.487792,0,0,1.487792,-78.780096,-458.22)"><path id="path2603"/></g><g id="g2605" fill="#000" transform="matrix(1.487792,0,0,1.487792,-78.780096,-458.22)"><path id="path2607" d="M 189.77,776.186 C 189.77,775.342 189.837,774.508 189.965,773.686 C 191.862,785.766 207.352,795.186 226.181,795.186 C 245.01,795.186 260.5,785.766 262.397,773.686 C 262.526,774.508 262.592,775.342 262.592,776.186 C 262.592,789.441 246.29,800.186 226.181,800.186 C 206.072,800.186 189.77,789.441 189.77,776.186 z"/></g><g id="g2609" fill="#fff" transform="matrix(1.487792,0,0,1.487792,-78.780096,-458.22)"><path id="path2611" d="M 534.775,715.362 C 541.89,723.409 544.216,735.598 541.753,751.927 L 228.53,848.698 C 198.492,855.593 176.614,848.085 162.899,826.176 L 68.264,671.348 C 68.193,663.193 69.928,656.632 73.467,651.665 L 184.453,818.991 C 193.406,826.25 211.802,827.881 239.638,823.883 L 518.16,735.883 C 527.485,729.808 533.023,722.968 534.775,715.362 z"/></g><g id="g2613" fill="#000" transform="matrix(1.487792,0,0,1.487792,-78.780096,-458.22)"><path id="path2615" d="M 284.34,395.185 C 285.988,393.093 288.221,391.301 290.924,389.782 L 290.914,640.694 C 287.995,639.134 285.728,637.285 284.34,635.181 L 284.34,395.185 z"/></g><g id="g2617" fill="#fff" transform="matrix(1.487792,0,0,1.487792,-78.780096,-458.22)"><path id="path2619" d="M 302.874,385.55 C 305.453,385.022 308.141,384.66 310.924,384.46 C 310.924,506.384 310.919,594.355 310.913,645.768 C 308.139,645.574 305.459,645.222 302.913,644.722 C 298.339,643.822 294.221,642.457 290.914,640.694 L 290.924,389.782 C 294.332,387.876 298.43,386.465 302.874,385.55 z"/></g><g id="g2621" fill="#000" transform="matrix(1.487792,0,0,1.487792,-78.780096,-458.22)"><path id="path2623" d="M 328.041,644.813 C 322.445,645.878 316.541,646.16 310.913,645.768 C 310.919,594.355 310.924,506.384 310.924,384.46 C 316.618,384.055 322.505,384.371 328.002,385.406 C 336.426,386.999 343.892,390.253 348.34,395.185 L 348.34,635.181 C 343.331,640.189 336.002,643.295 328.041,644.813 z"/></g><g id="g2625" fill="#000" transform="matrix(1.487792,0,0,1.487792,-78.780096,-458.22)"><path id="path2627" d="M 284.34,395.185 C 295.756,380.69 335.206,380.621 348.34,395.185 L 348.34,406.028 C 337.372,408.386 324.395,409.75 310.488,409.75 C 301.257,409.75 292.436,409.149 284.34,408.055 L 284.34,395.185 z"/></g><g id="g2629" fill="#fff" transform="matrix(1.487792,0,0,1.487792,-78.780096,-458.22)"><path id="path2631" d="M 310.488,404.75 C 316.642,404.75 322.614,404.483 328.31,403.981 L 328.311,408.981 C 322.614,409.483 316.642,409.75 310.488,409.75 C 301.257,409.75 292.436,409.149 284.34,408.055 L 284.34,399.055 C 292.436,400.149 301.257,404.75 310.488,404.75 z"/></g></g></svg>